<?xml version="1.0" standalone="no"?>
<!DOCTYPE svg PUBLIC "-//W3C//DTD SVG 20010904//EN"
 "http://www.w3.org/TR/2001/REC-SVG-20010904/DTD/svg10.dtd">
<svg version="1.0" xmlns="http://www.w3.org/2000/svg"
 width="400.000000pt" height="400.000000pt" viewBox="0 0 400.000000 400.000000"
 preserveAspectRatio="xMidYMid meet">
<metadata>
Created by potrace 1.14, written by Peter Selinger 2001-2017
</metadata>
<g transform="translate(0.000000,400.000000) scale(0.100000,-0.100000)"
fill="#000000" stroke="none">
<path d="M2838 3598 c0 -7 -2 -17 -3 -23 -2 -5 -3 -20 -4 -32 -1 -19 -7 -23
-31 -23 -29 0 -34 -7 -31 -42 1 -10 -2 -26 -8 -36 -6 -10 -13 -144 -16 -303
-3 -156 -9 -300 -12 -319 -4 -19 -8 -66 -10 -105 -9 -189 -23 -446 -27 -500
-3 -33 -7 -92 -9 -131 -4 -81 -10 -94 -41 -94 -16 0 -27 10 -39 35 -9 20 -17
40 -17 46 0 5 -12 21 -26 34 -14 13 -23 29 -19 34 3 6 3 26 -1 46 -5 26 -11
35 -27 35 -22 0 -46 26 -47 50 0 9 -9 22 -20 30 -24 17 -27 71 -6 121 7 19 16
81 20 139 5 88 9 108 26 121 16 14 20 31 22 99 2 81 2 83 -30 111 -18 16 -32
32 -32 37 0 15 -66 72 -83 72 -9 0 -17 6 -17 13 0 20 -88 77 -107 69 -2 -1
-29 11 -60 25 -54 24 -137 35 -172 23 -8 -3 -44 -24 -80 -47 -36 -24 -71 -43
-78 -43 -15 0 -93 -117 -93 -140 0 -10 -6 -23 -14 -29 -8 -6 -20 -26 -27 -44
-7 -18 -23 -41 -35 -52 -23 -19 -23 -24 -17 -112 l6 -93 38 0 c42 0 56 -16 54
-60 -1 -14 3 -31 8 -37 6 -9 4 -22 -7 -39 -16 -23 -19 -75 -5 -64 4 3 16 -3
28 -14 16 -15 20 -28 17 -67 -2 -42 1 -51 21 -64 13 -9 21 -20 19 -24 -10 -15
48 -66 78 -68 43 -3 62 -26 48 -57 -8 -19 -24 -27 -67 -37 -40 -9 -63 -21 -81
-41 -28 -35 -29 -41 -8 -62 19 -19 84 -20 134 -3 31 11 47 12 94 8 16 -1 28
-80 15 -95 -5 -6 -9 -18 -9 -28 0 -11 -7 -18 -20 -18 -11 0 -20 -4 -20 -9 0
-6 -13 -24 -30 -42 -24 -26 -29 -40 -27 -73 3 -47 -33 -131 -60 -140 -23 -8
-83 -63 -83 -76 0 -5 -4 -10 -10 -10 -23 0 -9 -127 22 -196 6 -13 5 -46 -1
-90 -20 -127 -24 -168 -24 -254 1 -111 9 -197 22 -240 19 -61 14 -83 -24 -108
-19 -12 -35 -26 -35 -32 0 -5 -17 -17 -37 -26 -21 -10 -55 -33 -76 -51 -44
-39 -51 -40 -82 -9 -22 22 -60 38 -95 41 -42 3 -46 -43 -5 -65 35 -19 38 -46
8 -70 -14 -11 -29 -20 -33 -20 -4 0 -18 -10 -32 -22 -13 -13 -46 -42 -73 -64
-57 -48 -100 -121 -83 -141 14 -17 35 -16 42 2 10 26 26 16 26 -15 l0 -30 708
0 708 0 -7 48 c-4 26 -9 54 -12 62 -2 8 -7 32 -12 53 -4 20 -10 37 -14 37 -10
0 -41 67 -41 88 0 9 -7 35 -15 58 -10 31 -13 81 -10 210 5 229 9 291 18 300 4
4 7 32 7 63 0 31 5 94 11 141 6 47 11 91 11 98 1 6 4 12 8 12 4 0 10 38 12 83
3 46 10 92 16 103 21 40 26 96 26 324 1 131 5 242 11 250 5 8 10 29 10 46 1
17 5 35 8 42 4 6 3 13 -3 17 -6 4 -8 11 -4 16 7 11 33 327 38 454 2 44 6 96
10 115 4 19 11 100 17 180 5 80 12 163 15 185 9 70 33 267 39 320 1 17 5 37 8
45 8 22 16 173 10 188 -3 6 -16 12 -29 12 -13 0 -25 -6 -26 -12z"/>
<path d="M1287 523 c-3 -5 -2 -15 3 -23 10 -16 40 -5 43 15 2 12 -39 19 -46 8z"/>
</g>
</svg>
